<?xml version="1.0" standalone="no"?>
<!DOCTYPE svg PUBLIC "-//W3C//DTD SVG 20010904//EN"
 "http://www.w3.org/TR/2001/REC-SVG-20010904/DTD/svg10.dtd">
<svg version="1.0" xmlns="http://www.w3.org/2000/svg"
 width="1000.000000pt" height="1000.000000pt" viewBox="0 0 1000.000000 1000.000000"
 preserveAspectRatio="xMidYMid meet">
<metadata>
Created by potrace 1.14, written by Peter Selinger 2001-2017
</metadata>
<g transform="translate(0.000000,1000.000000) scale(0.100000,-0.100000)"
fill="#000000" stroke="none">
<path d="M6020 9577 c-227 -114 -339 -268 -331 -455 1 -44 49 -93 80 -85 27 7
60 58 85 133 39 114 66 150 101 137 20 -8 4 -51 -57 -150 -62 -100 -70 -137
-33 -157 21 -11 34 -12 73 -2 88 24 168 137 179 257 14 137 -2 356 -26 355 -3
-1 -35 -15 -71 -33z"/>
<path d="M4914 9543 c-20 -21 -48 -54 -63 -73 -14 -19 -29 -37 -32 -40 -4 -3
-23 -37 -42 -77 -60 -124 -74 -223 -44 -324 27 -90 85 -135 130 -99 21 17 22
27 25 151 2 114 5 136 21 152 16 17 19 17 34 3 9 -10 14 -27 11 -44 -8 -52
-14 -87 -19 -112 -3 -14 -7 -47 -10 -73 -7 -91 53 -109 125 -37 68 68 84 201
41 330 -23 68 -119 267 -133 276 -4 3 -24 -12 -44 -33z"/>
<path d="M4170 9350 c-11 -20 -13 -29 -26 -90 -44 -205 -10 -383 91 -485 61
-61 131 -76 161 -36 18 23 9 52 -52 170 -40 78 -54 114 -49 130 3 11 13 21 20
21 22 0 43 -38 76 -141 33 -103 59 -140 90 -132 22 6 61 53 66 81 21 112 -14
207 -113 306 -46 46 -99 88 -186 150 -65 46 -67 46 -78 26z"/>
<path d="M5407 9276 c-86 -92 -152 -209 -175 -306 -12 -53 -6 -167 12 -213 17
-46 65 -97 91 -97 7 0 23 8 36 19 22 17 23 26 25 142 1 68 2 132 3 141 1 22
41 35 52 17 10 -15 4 -95 -10 -145 -4 -16 -9 -55 -10 -86 -2 -47 1 -58 17 -67
31 -16 62 -9 97 24 89 83 101 212 34 386 -28 72 -100 215 -117 230 -4 4 -28
-16 -55 -45z"/>
<path d="M3668 9046 c-76 -72 -169 -223 -183 -297 -3 -13 -8 -37 -11 -53 -8
-35 -7 -100 1 -146 19 -107 120 -177 153 -106 5 12 10 73 11 136 2 143 6 160
36 160 31 0 36 -26 18 -112 -8 -40 -16 -97 -17 -126 -3 -46 0 -55 19 -68 20
-13 27 -13 57 -1 97 41 139 187 97 339 -18 66 -122 292 -139 303 -4 2 -23 -11
-42 -29z"/>
<path d="M6635 9020 c-4 -6 -10 -8 -15 -5 -14 9 -165 -53 -223 -91 -108 -72
-186 -185 -192 -281 -4 -57 10 -89 46 -102 36 -12 58 9 141 136 47 72 66 93
83 93 53 0 37 -41 -51 -132 -80 -84 -98 -113 -84 -138 33 -62 137 -44 223 38
20 20 37 42 37 49 0 7 4 13 9 13 10 0 50 98 57 140 3 14 7 39 11 55 8 37 9 43
18 130 4 39 9 78 11 88 2 13 -4 17 -31 17 -19 0 -37 -5 -40 -10z"/>
<path d="M6044 8941 c-51 -19 -255 -120 -264 -131 -3 -4 -16 -13 -29 -20 -27
-14 -26 -13 -88 -66 -137 -117 -185 -335 -89 -404 12 -8 26 -15 31 -15 20 -2
55 19 55 32 0 7 4 13 9 13 5 0 34 48 64 108 76 146 111 181 137 132 12 -23 -4
-67 -42 -111 -82 -96 -142 -183 -151 -217 -3 -15 2 -31 16 -48 57 -65 201 -7
293 118 72 98 101 175 123 334 11 74 2 276 -12 290 -1 1 -25 -6 -53 -15z"/>
<path d="M4654 8868 c-93 -101 -158 -215 -180 -319 -6 -29 -7 -124 -1 -161 11
-73 75 -146 119 -135 32 8 46 40 44 100 0 26 3 47 7 47 5 0 5 5 1 11 -9 15
-11 109 -2 109 3 0 4 9 1 19 -3 13 2 23 17 31 26 14 39 4 41 -30 2 -27 -10
-110 -17 -122 -3 -4 -7 -34 -10 -66 -7 -65 8 -92 49 -92 70 0 137 103 140 213
1 75 -6 117 -34 194 -28 75 -112 236 -125 240 -6 2 -28 -16 -50 -39z"/>
<path d="M4021 8738 c-21 -46 -46 -123 -41 -123 2 0 -2 -9 -8 -21 -6 -11 -14
-43 -18 -70 -3 -27 -8 -58 -10 -69 -5 -25 -5 -107 0 -165 17 -198 168 -383
278 -339 15 6 29 21 32 35 7 26 -20 141 -35 150 -5 3 -9 14 -9 25 0 10 -5 19
-10 19 -6 0 -9 3 -8 8 0 4 -2 16 -7 27 -4 11 -14 35 -21 54 -21 51 -18 98 6
106 12 4 27 2 34 -4 12 -10 33 -67 42 -115 2 -12 6 -32 9 -46 9 -44 15 -69 20
-91 2 -12 13 -38 23 -58 38 -72 119 -40 153 61 48 144 -15 306 -186 474 -71
70 -207 184 -219 184 -3 0 -15 -19 -25 -42z"/>
<path d="M5127 8672 c-39 -45 -133 -228 -171 -332 -67 -184 -43 -353 64 -447
52 -47 123 -39 134 14 5 25 1 98 -7 143 -4 21 -18 110 -21 140 -5 41 10 70 38
70 34 0 43 -36 39 -150 -4 -123 -4 -127 1 -176 5 -49 21 -84 41 -85 8 -1 21
-2 28 -3 21 -4 61 21 84 52 54 74 77 186 60 297 -16 98 -37 159 -83 244 -42
74 -89 139 -156 210 -33 37 -37 38 -51 23z"/>
<path d="M3045 8667 c-6 -19 -27 -99 -32 -127 -3 -14 -5 -74 -6 -135 -1 -144
25 -223 99 -305 77 -85 174 -93 174 -15 0 21 -36 111 -50 125 -3 3 -18 31 -34
62 -32 64 -31 110 3 101 21 -5 61 -80 61 -112 0 -11 5 -23 10 -26 6 -4 8 -10
5 -15 -3 -5 -2 -17 3 -27 6 -10 16 -31 23 -46 20 -43 46 -53 78 -30 37 28 52
64 52 127 2 119 -95 251 -272 372 -85 58 -108 69 -114 51z"/>
<path d="M7007 8574 c-1 -1 -32 -5 -68 -8 -173 -17 -308 -82 -373 -181 -54
-82 -57 -176 -7 -201 34 -17 63 -4 172 78 106 80 150 104 173 95 22 -9 20 -43
-3 -66 -11 -11 -78 -49 -149 -85 -141 -72 -171 -100 -156 -144 15 -42 55 -64
121 -67 141 -6 287 80 412 243 38 49 121 209 121 232 0 9 4 20 9 26 5 5 12 23
15 40 l7 31 -53 2 c-65 4 -219 7 -221 5z"/>
<path d="M6359 8339 c-260 -220 -363 -364 -375 -523 -8 -114 48 -226 114 -226
38 0 48 9 66 62 16 50 20 66 36 164 13 82 29 123 50 134 20 11 50 -10 50 -33
0 -17 -19 -88 -30 -112 -84 -190 -92 -262 -31 -283 88 -31 212 102 251 267 26
110 16 260 -27 401 -20 66 -60 157 -72 164 -5 3 -19 -3 -32 -15z"/>
<path d="M3560 8178 c-13 -73 -15 -209 -5 -265 12 -71 48 -165 81 -215 75
-112 182 -172 240 -133 41 26 28 83 -37 166 -16 20 -29 42 -29 48 0 6 -4 11
-9 11 -5 0 -21 23 -35 51 -19 39 -23 56 -15 70 5 11 14 19 18 19 18 0 53 -47
78 -105 32 -74 64 -139 79 -159 13 -19 53 -27 75 -15 25 13 49 72 49 119 0
128 -76 236 -244 349 -65 44 -218 131 -229 131 -3 0 -11 -33 -17 -72z"/>
<path d="M7408 8176 c-1 -2 -34 -6 -73 -9 -76 -6 -179 -36 -235 -70 -42 -25
-105 -89 -125 -128 -40 -77 -9 -144 58 -123 12 3 60 35 107 69 94 69 124 83
145 65 26 -22 -1 -46 -110 -100 -73 -35 -110 -59 -117 -76 -17 -36 2 -68 48
-81 89 -26 185 7 267 90 57 59 90 97 81 97 -3 0 6 15 19 33 13 17 34 55 48 82
13 28 29 53 34 57 6 4 7 8 2 8 -4 0 -1 13 7 29 19 35 11 40 -74 47 -30 3 -60
7 -67 9 -6 2 -13 2 -15 1z"/>
<path d="M2433 8092 c-29 -4 -29 -5 3 -94 46 -128 120 -247 204 -328 68 -66
81 -75 151 -108 87 -40 160 -53 224 -38 11 2 23 5 26 5 21 3 52 45 52 71 0 44
-24 65 -161 133 -139 70 -162 87 -162 122 0 20 5 25 26 25 25 0 78 -27 114
-57 63 -53 141 -105 174 -115 37 -11 40 -11 62 16 20 22 23 36 20 70 -13 145
-169 265 -380 293 -43 5 -326 10 -353 5z"/>
<path d="M4537 7993 c-28 -73 -46 -137 -55 -193 -8 -46 -8 -258 0 -290 45
-188 199 -334 284 -268 23 19 25 25 19 66 -4 25 -24 86 -46 136 -57 131 -70
180 -55 201 7 10 21 16 31 14 16 -4 47 -47 52 -76 1 -6 5 -26 8 -45 3 -18 8
-40 10 -48 2 -8 6 -26 9 -40 9 -52 39 -125 55 -135 46 -27 91 -1 127 73 13 27
18 58 17 112 -2 91 -2 91 -36 163 -51 112 -154 221 -364 387 -22 18 -30 10
-56 -57z"/>
<path d="M5820 8043 c-8 -2 -22 -7 -30 -10 -8 -4 -17 -7 -20 -7 -3 -1 -44 -20
-93 -43 -260 -124 -386 -259 -401 -426 -8 -79 36 -157 87 -157 32 0 59 34 129
163 68 127 90 152 120 136 39 -21 -2 -100 -126 -244 -77 -89 -72 -157 11 -171
81 -13 192 62 267 178 20 31 36 61 36 65 0 4 6 20 14 34 16 32 29 79 43 164 7
41 9 194 3 278 -3 46 -8 51 -40 40z"/>
<path d="M6790 7859 c-97 -78 -216 -200 -261 -269 -86 -129 -100 -282 -36
-377 43 -63 100 -65 132 -4 15 31 35 99 39 141 6 58 30 135 49 156 16 19 24
21 40 13 16 -9 19 -18 15 -53 -3 -23 -12 -57 -21 -76 -76 -170 -73 -164 -83
-226 -10 -61 48 -93 119 -65 39 15 108 89 137 147 13 27 25 51 25 54 0 3 3 10
6 15 6 9 21 79 25 118 1 9 2 19 3 22 3 6 3 104 1 108 -1 1 -3 20 -5 42 -5 58
-26 158 -36 170 -5 5 -9 16 -9 24 0 26 -43 121 -54 121 -6 -1 -45 -28 -86 -61z"/>
<path d="M3291 7777 c-22 -56 -53 -141 -58 -162 -32 -133 -37 -290 -12 -376 7
-24 13 -46 13 -49 1 -3 14 -31 29 -62 33 -68 80 -119 135 -147 39 -20 49 -21
89 -7 19 6 40 40 35 58 -1 3 -4 19 -7 36 -5 32 -22 75 -67 172 -28 61 -41 140
-26 156 4 3 18 4 32 0 20 -5 29 -17 40 -59 9 -28 17 -63 20 -77 18 -104 41
-176 62 -197 65 -65 160 45 155 182 -2 54 -4 70 -14 98 -10 24 -15 41 -14 47
2 19 -100 155 -167 223 -38 39 -148 134 -196 170 l-36 26 -13 -32z"/>
<path d="M2128 7685 c-43 -6 -80 -14 -83 -17 -12 -11 69 -160 121 -222 73 -88
165 -152 248 -173 46 -11 123 -9 154 4 29 12 52 45 52 74 0 10 -71 59 -92 63
-7 2 -20 6 -28 9 -8 4 -41 16 -73 27 -64 24 -90 45 -85 69 6 27 54 16 125 -29
94 -60 145 -80 164 -66 24 17 41 54 29 61 -6 4 -8 10 -5 15 13 21 -51 107
-105 141 -23 15 -84 38 -120 46 -39 9 -233 8 -302 -2z"/>
<path d="M7314 7634 c-75 -15 -148 -51 -192 -95 -78 -76 -92 -175 -29 -198 33
-13 65 -2 254 86 17 8 49 15 70 16 35 2 38 0 41 -26 3 -24 -2 -29 -40 -46 -45
-19 -93 -31 -218 -57 -36 -8 -86 -33 -104 -53 -12 -13 -13 -24 -6 -52 11 -39
59 -72 120 -84 46 -8 46 -8 110 -2 135 14 257 81 382 210 58 59 158 200 158
222 0 12 -163 56 -277 75 -97 17 -202 18 -269 4z"/>
<path d="M5943 7488 c-13 -17 -49 -119 -69 -198 -20 -76 -27 -258 -12 -321 14
-62 14 -61 27 -94 59 -154 185 -249 256 -194 23 19 26 28 22 63 -2 23 -28 97
-57 165 -54 129 -62 167 -39 182 22 14 49 10 49 -6 0 -8 4 -15 8 -15 8 0 27
-68 39 -135 17 -103 48 -180 77 -191 8 -3 30 1 49 10 94 39 113 235 35 374
-48 88 -149 198 -278 302 -30 25 -61 51 -68 57 -17 16 -27 16 -39 1z"/>
<path d="M3896 7422 c-4 -3 -33 -7 -66 -7 -33 0 -62 -3 -65 -6 -6 -7 23 -98
38 -116 5 -7 7 -13 3 -13 -18 0 110 -209 162 -265 39 -42 117 -105 131 -105 6
0 11 -3 11 -8 0 -8 100 -47 150 -58 127 -27 235 51 171 125 -10 11 -78 51
-152 89 -141 71 -177 103 -150 135 19 24 63 4 171 -77 145 -110 184 -118 216
-46 21 48 -25 165 -86 218 -42 37 -112 75 -169 92 -78 25 -109 29 -236 36 -55
2 -105 6 -112 9 -6 2 -14 1 -17 -3z"/>
<path d="M5140 7413 c-58 -19 -88 -61 -75 -103 4 -12 33 -64 66 -116 32 -52
59 -97 59 -99 0 -3 13 -31 29 -63 41 -81 77 -186 90 -264 11 -65 9 -295 -4
-348 -3 -14 -8 -41 -10 -60 -2 -19 -7 -46 -10 -60 -3 -14 -8 -43 -11 -65 -4
-22 -8 -49 -9 -60 -2 -11 -4 -20 -5 -20 -1 0 -3 -18 -6 -40 -2 -22 -6 -53 -8
-70 -3 -16 -5 -34 -5 -40 -1 -5 -32 -42 -69 -82 -38 -39 -77 -90 -88 -112 -17
-37 -34 -53 -34 -33 0 4 -10 18 -22 32 -53 58 -141 223 -182 340 -51 145 -65
239 -61 420 1 91 5 176 9 190 3 14 8 34 10 45 2 11 9 41 15 67 18 76 -7 116
-78 125 -34 5 -43 2 -64 -21 -14 -15 -28 -43 -33 -64 -4 -20 -8 -41 -10 -47
-10 -35 -19 -90 -29 -180 -6 -57 -6 -212 0 -265 3 -25 8 -58 9 -75 6 -45 34
-162 57 -235 27 -83 122 -282 143 -299 9 -7 16 -19 16 -25 0 -6 22 -40 50 -76
27 -36 49 -70 50 -77 0 -6 4 -13 8 -15 15 -5 130 -206 197 -343 59 -120 116
-258 136 -330 44 -163 53 -225 52 -345 -1 -91 -3 -118 -16 -150 -3 -8 -10 -31
-16 -51 -20 -64 -110 -188 -239 -329 -37 -41 -107 -151 -127 -200 -27 -70 -37
-170 -22 -230 3 -14 8 -34 10 -45 8 -35 39 -108 73 -170 51 -97 63 -154 62
-295 -1 -79 3 -145 12 -180 8 -30 15 -57 15 -60 12 -45 20 -67 29 -79 6 -8 10
-17 9 -20 -1 -3 12 -33 29 -66 60 -118 214 -288 271 -299 36 -7 91 17 104 47
20 43 9 66 -67 145 -100 103 -110 116 -149 197 -64 131 -69 153 -77 330 -7
178 -11 214 -33 280 -60 185 -71 234 -73 310 -1 90 39 176 129 271 142 151
166 181 203 259 51 103 68 191 64 330 -2 61 -5 121 -7 135 -14 81 -21 112 -39
180 -34 129 -96 289 -181 460 -70 143 -81 172 -80 215 1 68 4 82 36 147 49 99
179 205 411 335 44 24 205 103 211 103 2 0 16 5 32 12 15 6 33 12 38 14 6 1
51 19 100 39 249 101 381 193 469 324 51 75 47 125 -14 156 -52 27 -84 12
-142 -65 -88 -118 -163 -163 -452 -275 -152 -58 -293 -127 -392 -190 -30 -19
-57 -35 -60 -35 -6 0 -3 23 22 165 24 139 29 190 29 325 0 144 -5 189 -35 284
-30 96 -78 197 -152 321 -34 58 -67 115 -73 126 -8 16 -64 51 -77 48 -1 0 -10
-3 -18 -6z"/>
<path d="M2755 7343 c-9 -21 -25 -65 -35 -98 -18 -55 -23 -78 -37 -155 -9 -55
-10 -172 -1 -217 5 -27 11 -59 14 -73 7 -39 61 -142 92 -175 68 -76 143 -101
185 -62 14 12 24 27 24 32 -1 34 -24 103 -63 192 -60 139 -64 193 -14 193 17
0 46 -46 53 -86 2 -11 6 -30 10 -44 3 -14 13 -59 22 -100 22 -96 45 -131 86
-126 52 6 95 60 105 134 9 70 10 122 0 122 -5 0 -7 3 -4 6 14 13 -54 164 -82
184 -4 3 -11 13 -16 22 -29 53 -286 287 -316 288 -4 0 -15 -17 -23 -37z"/>
<path d="M1910 7212 c-83 -4 -82 -3 -59 -69 85 -249 241 -429 424 -490 124
-40 245 -11 245 61 0 42 -37 72 -167 137 -152 75 -186 107 -149 138 23 19 56
4 166 -78 58 -43 120 -83 138 -89 28 -10 35 -8 58 12 21 17 26 31 26 64 -1 93
-81 197 -193 250 -59 28 -78 33 -149 47 -77 15 -232 23 -340 17z"/>
<path d="M7897 7154 c-1 -1 -31 -4 -67 -7 -127 -11 -220 -53 -296 -133 -73
-77 -90 -162 -37 -187 21 -9 32 -7 70 13 25 13 51 29 57 35 30 29 131 95 146
95 10 0 23 -6 29 -13 16 -20 -20 -50 -120 -98 -110 -53 -130 -72 -118 -109 14
-37 49 -54 117 -53 135 0 248 104 361 330 45 90 50 107 36 108 -5 1 -26 5 -45
8 -36 7 -129 15 -133 11z"/>
<path d="M7189 7080 c-6 -4 -19 -5 -30 -3 -28 8 -178 -26 -238 -53 -152 -69
-244 -222 -186 -310 13 -20 24 -25 48 -23 29 3 125 58 158 92 33 33 123 87
144 87 15 0 26 -8 30 -21 10 -31 -27 -64 -125 -110 -149 -71 -189 -98 -196
-138 -6 -30 -3 -38 25 -63 32 -28 49 -32 131 -29 124 4 262 91 369 234 36 47
136 227 127 227 -2 0 4 22 15 50 13 35 15 51 7 56 -15 10 -264 13 -279 4z"/>
<path d="M5105 6968 c-11 -6 -57 -48 -101 -93 -59 -60 -91 -102 -118 -156 -44
-89 -48 -105 -52 -191 -4 -112 33 -188 93 -188 41 0 54 26 68 138 19 154 26
175 57 170 31 -4 31 -32 -1 -138 -40 -132 -41 -136 -24 -159 30 -44 111 -14
158 58 70 105 63 275 -22 491 -31 79 -33 81 -58 68z"/>
<path d="M3892 6909 c-37 -19 -70 -68 -55 -83 3 -2 7 -20 8 -38 11 -99 110
-396 137 -406 4 -2 8 -8 8 -14 0 -32 126 -173 240 -268 122 -102 270 -264 270
-296 0 -8 5 -14 10 -14 6 0 10 -8 10 -18 0 -10 4 -22 9 -27 5 -6 23 -44 39
-85 34 -86 75 -174 195 -422 114 -236 131 -294 131 -453 -1 -84 -16 -227 -29
-275 -2 -8 -7 -35 -10 -60 -17 -122 -67 -269 -148 -439 -25 -52 -44 -98 -41
-103 3 -4 0 -8 -7 -8 -7 0 -10 -2 -7 -6 3 -3 0 -24 -7 -48 -20 -65 -15 -170
12 -291 64 -287 32 -425 -141 -600 -91 -92 -132 -120 -328 -224 -188 -100
-308 -204 -308 -265 0 -10 14 -31 30 -48 27 -27 36 -30 73 -25 35 4 54 16 108
68 38 37 94 78 130 96 35 17 107 52 159 77 145 71 234 146 352 294 191 241
208 314 128 547 -22 66 -43 136 -47 155 -6 38 -6 116 0 140 23 94 26 99 126
296 50 98 84 197 97 278 3 22 7 43 9 46 3 5 10 50 20 130 38 318 19 474 -83
675 -20 39 -49 89 -64 112 -15 23 -28 44 -28 48 0 3 -11 21 -24 38 -37 50 -70
123 -111 242 -65 194 -169 385 -262 479 -21 21 -81 74 -135 117 -114 93 -183
162 -201 201 -6 15 -15 28 -18 28 -6 0 -68 144 -73 172 -2 7 -6 20 -9 28 -3 8
-13 51 -22 95 -26 125 -36 147 -71 161 -27 11 -36 10 -72 -7z"/>
<path d="M3396 6824 c-9 -26 -13 -50 -11 -55 3 -4 1 -10 -4 -13 -7 -5 -28
-145 -24 -166 0 -3 4 -29 7 -59 9 -78 15 -99 44 -161 56 -116 168 -185 220
-134 19 20 9 70 -27 137 -63 114 -71 133 -71 155 0 28 26 40 45 21 7 -8 28
-57 46 -109 35 -105 47 -131 63 -142 53 -36 111 44 103 141 -6 69 -7 75 -37
133 -34 70 -180 203 -301 276 l-37 22 -16 -46z"/>
<path d="M7517 6664 c-1 -2 -15 -5 -31 -8 -133 -24 -236 -110 -236 -195 0 -44
34 -63 99 -57 28 3 55 7 59 10 5 3 19 7 33 10 13 3 42 10 64 15 84 22 121 23
139 6 22 -22 20 -32 -7 -49 -24 -16 -70 -23 -212 -31 -114 -6 -146 -15 -164
-46 -45 -80 65 -160 224 -164 191 -5 383 97 569 302 l28 32 -79 40 c-67 33
-163 73 -208 85 -5 2 -17 5 -25 9 -53 19 -244 50 -253 41z"/>
<path d="M2250 6542 c-30 -2 -59 -7 -63 -11 -10 -10 25 -115 66 -196 41 -83
109 -176 169 -233 164 -154 420 -189 443 -60 7 38 -34 73 -156 132 -135 67
-169 91 -169 121 0 57 43 45 167 -49 116 -87 133 -96 171 -96 41 0 57 24 56
85 -1 123 -126 239 -299 280 -104 24 -253 34 -385 27z"/>
<path d="M6587 6414 c-108 -25 -182 -95 -169 -161 8 -43 43 -51 202 -46 154 4
190 -3 187 -39 -2 -31 -33 -41 -109 -34 -39 3 -73 8 -76 10 -11 6 -113 18
-154 18 -154 0 -92 -166 82 -220 73 -23 165 -30 227 -18 11 3 42 8 67 11 26 4
49 11 52 16 3 5 14 9 24 9 23 0 220 100 220 112 0 4 4 8 10 8 5 0 18 7 27 15
10 8 27 21 38 30 20 14 19 15 -15 45 -50 42 -47 40 -140 102 -202 133 -337
173 -473 142z"/>
<path d="M3108 6377 c-18 -13 -37 -34 -42 -49 -10 -28 -5 -39 155 -304 27 -45
49 -84 49 -87 0 -9 140 -218 185 -277 105 -136 227 -238 358 -299 60 -28 194
-76 237 -86 8 -2 44 -11 80 -20 36 -9 76 -19 90 -22 56 -10 236 -55 248 -62 8
-4 13 -12 12 -17 -1 -11 28 -147 40 -189 5 -16 12 -48 16 -70 3 -22 8 -43 10
-46 15 -24 25 -294 14 -379 -8 -63 -35 -165 -85 -318 -30 -92 -62 -198 -71
-237 -9 -38 -18 -79 -22 -90 -3 -11 -6 -137 -7 -280 -1 -149 -6 -273 -12 -291
-29 -85 -97 -154 -198 -199 -70 -31 -132 -45 -305 -70 -58 -8 -114 -17 -125
-19 -11 -3 -52 -12 -92 -20 -161 -35 -285 -83 -423 -166 -74 -44 -140 -80
-147 -80 -7 0 -13 -4 -13 -8 0 -5 -6 -9 -12 -9 -7 0 -28 -4 -47 -7 -20 -4 -39
-2 -47 5 -24 19 -122 5 -145 -22 -22 -25 -25 -66 -7 -103 26 -58 169 -89 264
-58 25 8 90 37 143 65 234 120 276 141 281 143 3 0 19 6 35 13 40 17 153 52
185 57 14 3 32 7 41 10 9 2 32 7 51 9 64 8 273 44 318 54 197 45 328 137 390
274 40 89 44 124 45 392 0 132 4 258 9 280 13 69 46 197 73 285 15 47 27 90
28 95 2 6 12 40 23 76 54 175 58 397 11 594 -5 22 -12 54 -14 70 -3 17 -8 44
-12 60 -9 39 -8 33 -17 88 -4 27 -9 59 -12 70 -4 24 -10 75 -19 176 -9 100
-31 139 -174 306 -51 59 -309 313 -371 365 -29 25 -102 82 -162 128 -88 66
-114 81 -135 77 -40 -7 -65 -37 -69 -86 -5 -49 2 -60 61 -104 22 -17 42 -32
45 -35 3 -3 21 -17 42 -32 20 -15 42 -33 50 -40 7 -7 43 -37 78 -67 79 -67
279 -266 340 -341 25 -30 53 -64 63 -74 20 -23 22 -37 5 -31 -7 2 -65 15 -128
30 -148 34 -271 71 -338 101 -29 13 -55 24 -58 24 -4 0 -26 14 -51 30 -24 17
-47 30 -51 30 -16 0 -152 150 -208 230 -52 73 -136 203 -169 262 -5 10 -36 61
-67 114 -32 53 -58 100 -58 105 0 5 -4 9 -8 9 -5 0 -17 16 -28 35 -28 52 -77
64 -126 32z"/>
<path d="M7668 6153 c-97 -25 -150 -91 -107 -134 22 -22 16 -21 142 -24 141
-4 167 -10 167 -40 0 -30 -33 -35 -110 -17 -76 17 -172 25 -188 14 -23 -16
-23 -57 1 -93 33 -51 119 -90 204 -93 37 -2 74 1 81 7 6 5 12 7 12 4 0 -25
319 114 328 142 5 14 -57 76 -129 129 -131 98 -278 136 -401 105z"/>
<path d="M2168 6105 c-2 -1 -22 -5 -45 -9 -55 -7 -173 -47 -262 -88 l-72 -33
43 -51 c139 -165 365 -256 519 -209 39 12 86 52 91 79 11 55 -25 71 -185 80
-98 6 -133 18 -132 46 0 26 48 27 140 3 115 -30 154 -32 171 -8 21 28 3 89
-36 123 -24 20 -91 53 -118 58 -35 7 -110 13 -114 9z"/>
<path d="M5771 6008 c-67 -33 -176 -146 -208 -214 -24 -52 -28 -72 -30 -170
-1 -61 2 -129 7 -150 5 -21 11 -55 14 -74 3 -19 13 -60 21 -90 9 -30 17 -62
20 -70 2 -8 8 -28 15 -45 10 -25 7 -38 -19 -95 -16 -36 -35 -85 -40 -110 -10
-43 -8 -233 2 -275 3 -11 8 -42 11 -69 4 -27 9 -53 11 -57 9 -13 19 -133 18
-206 -2 -145 -39 -217 -187 -365 -51 -51 -102 -106 -113 -123 -29 -42 -50
-122 -46 -170 4 -42 37 -118 60 -136 7 -6 13 -18 13 -25 0 -8 4 -14 9 -14 10
0 57 -111 66 -155 3 -16 7 -39 9 -50 2 -11 7 -56 11 -100 10 -123 32 -214 67
-283 47 -94 150 -195 273 -269 38 -22 277 -139 305 -148 3 -1 17 -7 31 -13
103 -42 311 -106 384 -117 17 -3 57 -9 90 -14 74 -11 251 -11 314 1 78 15 84
16 151 38 77 26 172 75 196 101 22 25 25 63 8 98 -29 57 -68 60 -168 12 -131
-63 -183 -75 -331 -75 -119 0 -160 3 -238 19 -37 7 -245 71 -282 86 -16 7 -38
14 -48 16 -35 6 -204 82 -276 124 -84 48 -185 143 -224 209 -52 90 -67 154
-73 305 -1 55 -5 107 -7 115 -10 44 -23 70 -55 114 -71 101 -90 183 -55 249 9
18 55 73 103 122 123 128 149 174 174 310 16 82 11 270 -10 415 -7 47 -6 188
2 234 13 82 58 169 106 204 9 7 23 18 30 25 21 19 56 37 72 37 8 0 16 4 18 8
2 5 57 24 123 42 153 42 302 93 368 126 116 59 244 170 284 248 9 17 19 33 23
36 6 5 40 84 40 95 1 15 -32 64 -52 77 -25 17 -72 16 -93 -2 -8 -6 -28 -37
-45 -67 -30 -53 -142 -173 -162 -173 -4 0 -25 -10 -46 -23 -50 -31 -144 -67
-277 -107 -60 -18 -114 -33 -120 -34 -27 -5 -150 -50 -192 -71 -26 -12 -51
-21 -54 -19 -7 4 -29 87 -35 129 -2 11 -7 43 -12 70 -4 28 -7 82 -7 120 2 84
24 134 85 191 86 80 90 86 90 121 0 44 -14 69 -49 87 -25 14 -32 13 -70 -6z"/>
<path d="M2928 5879 c-64 -9 -152 -43 -243 -93 -66 -38 -245 -163 -257 -180
-10 -15 114 -102 217 -151 187 -90 365 -103 505 -37 55 26 119 82 121 105 0 6
2 20 4 31 2 10 -8 30 -22 43 -23 24 -29 25 -96 20 -40 -3 -96 -10 -126 -16
-139 -28 -224 -4 -172 48 17 17 33 18 166 15 167 -5 209 6 213 52 6 71 -85
147 -193 160 -22 3 -44 6 -50 8 -5 1 -35 -1 -67 -5z"/>
<path d="M7166 5883 c-2 -2 -16 -6 -32 -9 -36 -6 -105 -39 -133 -63 -34 -29
-52 -83 -38 -111 17 -34 55 -41 206 -36 142 4 181 -4 181 -35 0 -35 -67 -50
-153 -33 -79 15 -110 18 -175 19 -86 0 -105 -14 -97 -73 5 -42 40 -81 104
-115 139 -76 341 -63 535 34 84 42 206 124 206 139 0 5 -15 19 -32 31 -18 13
-35 26 -38 29 -3 4 -40 30 -84 59 -100 68 -237 136 -301 150 -55 11 -143 20
-149 14z"/>
<path d="M1130 1090 c-9 -6 -10 -10 -3 -10 6 0 15 5 18 10 8 12 4 12 -15 0z"/>
<path d="M1072 1074 c-23 -16 -69 -94 -55 -94 5 0 16 19 27 41 10 23 29 44 42
49 13 5 24 12 24 15 0 9 -15 5 -38 -11z"/>
<path d="M1188 1074 c18 -8 41 -29 52 -47 11 -17 20 -26 20 -18 0 20 -65 81
-86 80 -13 0 -8 -5 14 -15z"/>
<path d="M2410 1065 c0 -8 4 -15 10 -15 5 0 7 7 4 15 -4 8 -8 15 -10 15 -2 0
-4 -7 -4 -15z"/>
<path d="M3595 1071 c-11 -5 -29 -19 -40 -32 l-20 -24 25 22 c14 12 41 26 60
31 19 6 26 10 15 10 -11 1 -29 -3 -40 -7z"/>
<path d="M4035 1068 c-32 -19 -44 -34 -50 -64 l-6 -29 14 31 c8 17 28 40 43
52 32 23 31 28 -1 10z"/>
<path d="M4074 1072 c4 -3 14 -7 22 -8 9 -1 13 0 10 4 -4 3 -14 7 -22 8 -9 1
-13 0 -10 -4z"/>
<path d="M3390 1050 c-14 -11 -32 -20 -40 -21 -10 0 -11 -2 -3 -6 12 -4 83 33
83 43 0 9 -16 3 -40 -16z"/>
<path d="M3673 1058 c9 -7 23 -22 32 -33 l15 -20 -7 20 c-7 21 -32 44 -47 45
-6 0 -2 -6 7 -12z"/>
<path d="M3880 1063 c8 -3 26 -17 39 -31 13 -15 20 -20 16 -12 -15 29 -38 50
-54 49 -14 0 -14 -1 -1 -6z"/>
<path d="M2252 1040 c0 -14 2 -19 5 -12 2 6 2 18 0 25 -3 6 -5 1 -5 -13z"/>
<path d="M4134 1045 c8 -8 18 -15 22 -15 3 0 1 7 -6 15 -7 8 -17 15 -22 15 -5
0 -3 -7 6 -15z"/>
<path d="M3773 1038 c-11 -19 -13 -39 -2 -32 5 3 7 9 4 14 -3 5 3 13 12 19 10
6 13 11 6 11 -6 0 -15 -6 -20 -12z"/>
<path d="M1800 1020 c-6 -12 -16 -18 -23 -14 -7 4 -8 3 -4 -2 5 -5 14 -9 20
-9 7 0 12 -12 11 -27 -1 -15 2 -25 7 -23 4 3 6 17 4 31 -2 21 1 25 16 21 11
-3 19 -1 19 4 0 5 -9 9 -21 9 -15 0 -19 5 -15 15 8 22 -2 18 -14 -5z"/>
<path d="M2412 1016 c1 -14 5 -23 9 -20 7 4 0 44 -7 44 -2 0 -3 -11 -2 -24z"/>
<path d="M3413 990 c0 -22 2 -38 5 -35 7 7 8 66 1 71 -3 2 -6 -15 -6 -36z"/>
<path d="M4157 999 c4 -13 8 -18 11 -10 2 7 -1 18 -6 23 -8 8 -9 4 -5 -13z"/>
<path d="M1334 995 c-25 -19 -14 -19 22 0 16 8 22 15 13 15 -8 0 -24 -7 -35
-15z"/>
<path d="M1487 1000 c18 -4 40 -13 48 -20 8 -7 15 -8 15 -3 0 13 -46 33 -73
32 -15 -1 -12 -3 10 -9z"/>
<path d="M1620 990 c-11 -11 -20 -26 -20 -32 0 -7 6 -4 12 7 6 11 19 25 27 32
9 7 13 13 9 13 -5 0 -17 -9 -28 -20z"/>
<path d="M1705 998 c29 -16 35 -29 30 -60 -3 -16 -1 -28 3 -28 5 0 8 16 7 36
-1 35 -24 64 -49 64 -6 0 -2 -6 9 -12z"/>
<path d="M1911 984 c-17 -14 -31 -33 -30 -42 0 -13 2 -12 9 3 11 29 34 46 73
55 30 7 30 8 5 9 -15 1 -40 -10 -57 -25z"/>
<path d="M2180 1001 c8 -5 17 -8 21 -5 10 6 30 -21 45 -63 l13 -38 -1 43 c-1
24 -6 42 -13 42 -6 0 -16 5 -23 12 -6 6 -22 13 -34 15 -18 2 -19 1 -8 -6z"/>
<path d="M2245 1000 c-3 -5 -1 -10 4 -10 6 0 11 5 11 10 0 6 -2 10 -4 10 -3 0
-8 -4 -11 -10z"/>
<path d="M2454 994 c-18 -14 -18 -14 6 -3 31 14 36 19 24 19 -6 0 -19 -7 -30
-16z"/>
<path d="M2530 1007 c0 -5 9 -16 21 -26 11 -9 24 -32 29 -51 7 -32 8 -32 9 -8
1 18 -10 40 -29 60 -16 18 -30 29 -30 25z"/>
<path d="M2761 994 c0 -11 3 -14 6 -6 3 7 2 16 -1 19 -3 4 -6 -2 -5 -13z"/>
<path d="M3005 995 c50 -18 57 -18 25 0 -14 8 -34 14 -45 14 -11 0 -2 -6 20
-14z"/>
<path d="M3536 998 c-11 -35 -13 -58 -6 -53 4 3 10 18 12 35 5 30 1 41 -6 18z"/>
<path d="M1295 975 c0 -32 15 -44 15 -12 0 14 -4 28 -8 31 -4 2 -8 -6 -7 -19z"/>
<path d="M1412 980 c-18 -29 -15 -38 4 -12 9 13 14 25 12 27 -2 2 -9 -5 -16
-15z"/>
<path d="M2000 996 c0 -2 7 -7 16 -10 8 -3 12 -2 9 4 -6 10 -25 14 -25 6z"/>
<path d="M2611 990 c0 -8 4 -22 9 -30 12 -18 12 -2 0 25 -6 13 -9 15 -9 5z"/>
<path d="M2925 989 c-4 -6 -5 -12 -2 -15 2 -3 7 2 10 11 7 17 1 20 -8 4z"/>
<path d="M3088 978 c3 -12 11 -34 19 -48 7 -14 13 -30 13 -37 0 -6 4 -14 10
-18 11 -7 -8 55 -21 70 -5 5 -9 17 -9 26 0 10 -4 20 -9 23 -5 4 -7 -4 -3 -16z"/>
<path d="M3230 979 c-7 -11 -10 -23 -7 -25 2 -2 9 7 15 21 14 30 7 33 -8 4z"/>
<path d="M3715 990 c3 -5 8 -10 11 -10 2 0 4 5 4 10 0 6 -5 10 -11 10 -5 0 -7
-4 -4 -10z"/>
<path d="M3753 975 c-3 -9 -3 -18 -1 -21 3 -3 8 4 11 16 6 23 -1 27 -10 5z"/>
<path d="M2091 962 c-17 -31 -13 -40 5 -14 9 13 14 26 11 29 -3 2 -10 -4 -16
-15z"/>
<path d="M2413 895 c1 -46 5 -79 8 -74 3 6 20 3 40 -9 19 -10 40 -18 47 -17 6
2 19 3 27 4 8 0 15 6 15 11 0 7 -6 7 -17 2 -23 -12 -48 -8 -77 12 -27 17 -41
81 -27 119 7 19 6 27 -4 30 -10 5 -13 -12 -12 -78z"/>
<path d="M3264 966 c-3 -8 -4 -25 -2 -38 3 -17 5 -13 9 15 5 38 2 47 -7 23z"/>
<path d="M3945 945 c0 -18 2 -36 5 -38 3 -3 5 10 5 28 0 19 -3 36 -6 39 -3 3
-5 -10 -4 -29z"/>
<path d="M2743 955 c-3 -9 -3 -18 -1 -21 3 -3 8 4 11 16 6 23 -1 27 -10 5z"/>
<path d="M2894 944 c-9 -37 2 -104 21 -123 14 -14 14 -13 -1 17 -11 23 -15 49
-12 83 6 54 2 63 -8 23z"/>
<path d="M3050 961 c0 -6 4 -13 10 -16 6 -3 7 1 4 9 -7 18 -14 21 -14 7z"/>
<path d="M3723 952 c0 -12 5 -22 9 -22 11 0 10 12 -2 30 -7 12 -9 10 -7 -8z"/>
<path d="M4171 954 c0 -11 3 -14 6 -6 3 7 2 16 -1 19 -3 4 -6 -2 -5 -13z"/>
<path d="M1006 942 c-2 -4 -1 -14 3 -21 6 -10 10 -9 14 3 6 16 -8 32 -17 18z"/>
<path d="M3973 915 c0 -19 3 -32 7 -30 7 4 6 52 -2 60 -2 3 -5 -11 -5 -30z"/>
<path d="M1394 923 c2 -13 0 -23 -4 -23 -11 0 6 -60 21 -74 9 -8 9 -5 0 11
-15 29 -14 63 2 63 8 0 9 3 1 8 -6 4 -14 14 -18 22 -3 8 -4 5 -2 -7z"/>
<path d="M2631 935 c0 -5 6 -19 14 -29 8 -11 15 -15 15 -10 0 6 -7 19 -15 30
-8 10 -14 15 -14 9z"/>
<path d="M3206 925 c-9 -26 -7 -32 5 -12 6 10 9 21 6 23 -2 3 -7 -2 -11 -11z"/>
<path d="M3410 925 c0 -8 2 -15 4 -15 2 0 6 7 10 15 3 8 1 15 -4 15 -6 0 -10
-7 -10 -15z"/>
<path d="M1290 921 c0 -6 4 -12 8 -15 5 -3 9 1 9 9 0 8 -4 15 -9 15 -4 0 -8
-4 -8 -9z"/>
<path d="M1809 918 c-6 -73 -3 -100 11 -111 12 -10 13 -10 4 3 -6 8 -10 39 -8
68 1 28 1 52 -2 52 -2 0 -4 -6 -5 -12z"/>
<path d="M3060 920 c0 -5 -7 -10 -15 -10 -8 0 -15 -4 -15 -9 0 -5 9 -7 20 -4
17 5 30 33 15 33 -3 0 -5 -4 -5 -10z"/>
<path d="M3527 917 c-3 -8 -2 -20 3 -26 5 -9 8 -4 8 13 0 29 -3 32 -11 13z"/>
<path d="M4169 928 c-6 -21 -5 -38 1 -38 5 0 8 9 7 20 -1 17 -5 26 -8 18z"/>
<path d="M1642 909 c-18 -4 -36 -10 -40 -14 -4 -3 5 -4 19 0 14 3 40 7 57 9
17 1 34 4 36 7 7 7 -33 6 -72 -2z"/>
<path d="M1876 905 c-3 -8 -1 -15 4 -15 6 0 10 7 10 15 0 8 -2 15 -4 15 -2 0
-6 -7 -10 -15z"/>
<path d="M2075 910 c3 -5 8 -10 11 -10 2 0 4 5 4 10 0 6 -5 10 -11 10 -5 0 -7
-4 -4 -10z"/>
<path d="M2930 908 c0 -4 16 -8 35 -8 19 0 35 2 35 4 0 2 -16 6 -35 8 -19 2
-35 0 -35 -4z"/>
<path d="M1250 890 c-6 -11 -7 -20 -2 -20 6 0 12 9 15 20 3 11 3 20 1 20 -2 0
-8 -9 -14 -20z"/>
<path d="M1438 903 c6 -2 18 -2 25 0 6 3 1 5 -13 5 -14 0 -19 -2 -12 -5z"/>
<path d="M1503 903 c15 -2 37 -2 50 0 12 2 0 4 -28 4 -27 0 -38 -2 -22 -4z"/>
<path d="M1918 903 c12 -2 30 -2 40 0 9 3 -1 5 -23 4 -22 0 -30 -2 -17 -4z"/>
<path d="M1980 901 c0 -5 9 -7 20 -4 11 3 20 7 20 9 0 2 -9 4 -20 4 -11 0 -20
-4 -20 -9z"/>
<path d="M2038 903 c7 -3 16 -2 19 1 4 3 -2 6 -13 5 -11 0 -14 -3 -6 -6z"/>
<path d="M3750 901 c0 -6 4 -13 10 -16 6 -3 7 1 4 9 -7 18 -14 21 -14 7z"/>
<path d="M1026 870 c18 -40 50 -67 89 -74 15 -3 25 -2 21 1 -4 4 -17 8 -29 10
-21 3 -57 37 -84 79 -7 10 -6 3 3 -16z"/>
<path d="M1739 893 c-3 -34 -11 -51 -34 -70 -14 -13 -22 -23 -17 -23 4 0 18 9
29 19 12 11 23 17 27 14 3 -3 5 11 4 31 -1 32 -7 50 -9 29z"/>
<path d="M3269 898 c-4 -10 -5 -67 -1 -63 6 6 11 65 5 65 -2 0 -4 -1 -4 -2z"/>
<path d="M1295 880 c-3 -5 -1 -10 4 -10 6 0 11 5 11 10 0 6 -2 10 -4 10 -3 0
-8 -4 -11 -10z"/>
<path d="M2076 875 c4 -8 8 -15 10 -15 2 0 4 7 4 15 0 8 -4 15 -10 15 -5 0 -7
-7 -4 -15z"/>
<path d="M2245 870 c2 -12 -2 -23 -10 -27 -8 -3 -15 -10 -15 -16 0 -5 9 -2 20
8 20 19 27 55 11 55 -6 0 -8 -9 -6 -20z"/>
<path d="M2586 881 c-11 -17 -27 -66 -19 -56 12 13 34 65 28 65 -2 0 -6 -4 -9
-9z"/>
<path d="M3183 858 c-5 -18 -15 -32 -21 -30 -7 1 -12 -2 -12 -8 0 -26 29 -6
43 30 8 22 12 40 8 40 -5 0 -13 -15 -18 -32z"/>
<path d="M3410 870 c0 -11 4 -20 8 -20 4 0 8 9 8 20 0 11 -4 20 -8 20 -4 0 -8
-9 -8 -20z"/>
<path d="M3705 852 c-11 -20 -29 -38 -40 -40 -11 -2 -24 -8 -29 -12 -12 -12
36 0 52 13 15 12 45 67 40 72 -2 2 -12 -13 -23 -33z"/>
<path d="M3936 875 c-3 -9 -6 -22 -5 -28 0 -7 5 -1 10 12 5 13 8 26 5 28 -2 2
-6 -3 -10 -12z"/>
<path d="M1587 865 c-4 -8 -3 -16 1 -19 4 -3 9 4 9 15 2 23 -3 25 -10 4z"/>
<path d="M1537 835 c-15 -19 -25 -35 -21 -35 7 0 28 25 45 53 15 27 7 20 -24
-18z"/>
<path d="M3042 834 c-12 -19 -20 -34 -18 -34 7 0 49 61 44 65 -2 2 -13 -12
-26 -31z"/>
<path d="M3541 859 c-1 -16 39 -59 54 -59 5 0 -1 7 -13 16 -13 9 -27 26 -32
38 -6 14 -9 16 -9 5z"/>
<path d="M3760 864 c0 -6 7 -19 16 -30 14 -18 14 -18 3 6 -14 31 -19 36 -19
24z"/>
<path d="M3980 861 c0 -6 4 -13 10 -16 6 -3 7 1 4 9 -7 18 -14 21 -14 7z"/>
<path d="M1211 830 c-19 -16 -38 -27 -42 -24 -4 2 -10 1 -13 -4 -13 -22 28 -5
62 24 20 18 35 33 32 33 -3 0 -20 -13 -39 -29z"/>
<path d="M1295 831 c0 -16 3 -27 7 -25 4 3 6 14 5 24 -5 31 -13 32 -12 1z"/>
<path d="M2701 843 c-9 -16 -12 -16 -21 -3 -5 8 -10 10 -10 5 0 -6 5 -16 11
-22 16 -16 -8 -72 -35 -83 -15 -6 -17 -9 -5 -9 22 -1 37 18 59 78 19 52 19 65
1 34z"/>
<path d="M4128 828 c-15 -16 -24 -28 -20 -28 13 1 54 40 50 47 -1 5 -15 -4
-30 -19z"/>
<path d="M1900 825 c13 -14 25 -25 27 -25 9 0 -33 49 -41 50 -5 0 1 -11 14
-25z"/>
<path d="M2030 835 c-7 -9 -11 -17 -9 -20 3 -2 10 5 17 15 14 24 10 26 -8 5z"/>
<path d="M2092 841 c2 -8 15 -21 29 -30 19 -11 21 -12 9 0 -8 8 -21 21 -29 29
-11 12 -12 12 -9 1z"/>
<path d="M1590 826 c0 -2 7 -9 15 -16 13 -11 14 -10 9 4 -5 14 -24 23 -24 12z"/>
<path d="M2245 820 c-3 -5 -1 -10 4 -10 6 0 11 5 11 10 0 6 -2 10 -4 10 -3 0
-8 -4 -11 -10z"/>
<path d="M3890 814 c-14 -8 -18 -14 -10 -14 8 1 24 7 34 15 24 19 10 18 -24
-1z"/>
<path d="M4000 826 c0 -2 7 -7 16 -10 8 -3 12 -2 9 4 -6 10 -25 14 -25 6z"/>
<path d="M1430 812 c0 -15 39 -22 47 -9 3 7 3 9 -2 5 -4 -4 -16 -3 -26 3 -11
5 -19 6 -19 1z"/>
<path d="M1740 810 c0 -6 7 -10 15 -10 8 0 15 2 15 4 0 2 -7 6 -15 10 -8 3
-15 1 -15 -4z"/>
<path d="M1991 810 c-8 -4 -23 -7 -33 -5 -10 2 -16 0 -13 -5 5 -8 54 -4 64 6
9 9 -5 13 -18 4z"/>
<path d="M2195 810 c-3 -5 -1 -10 4 -10 6 0 11 5 11 10 0 6 -2 10 -4 10 -3 0
-8 -4 -11 -10z"/>
<path d="M1635 800 c3 -5 8 -10 11 -10 2 0 4 5 4 10 0 6 -5 10 -11 10 -5 0 -7
-4 -4 -10z"/>
<path d="M2995 800 c3 -5 8 -10 11 -10 2 0 4 5 4 10 0 6 -5 10 -11 10 -5 0 -7
-4 -4 -10z"/>
<path d="M3800 806 c3 -3 18 -7 34 -10 16 -3 25 -2 22 1 -4 4 -19 9 -34 11
-15 2 -24 1 -22 -2z"/>
<path d="M4045 800 c3 -5 8 -10 11 -10 2 0 4 5 4 10 0 6 -5 10 -11 10 -5 0 -7
-4 -4 -10z"/>
<path d="M4070 799 c0 -5 5 -7 10 -4 6 3 10 8 10 11 0 2 -4 4 -10 4 -5 0 -10
-5 -10 -11z"/>
<path d="M2442 660 c0 -16 3 -30 8 -30 5 0 7 7 4 15 -8 21 13 19 25 -2 6 -10
11 -13 11 -7 0 6 -11 20 -23 33 l-24 22 -1 -31z"/>
<path d="M3424 676 c-2 -6 -3 -73 -1 -147 l3 -134 2 143 2 142 35 -3 c20 -3
37 -1 39 2 3 4 -13 7 -35 8 -24 1 -42 -3 -45 -11z"/>
<path d="M3534 683 c3 -4 17 -8 29 -10 17 -2 19 -1 7 7 -17 11 -47 14 -36 3z"/>
<path d="M1039 673 c0 -5 -2 -16 -4 -25 -2 -10 0 -18 5 -18 4 0 8 11 8 25 0
22 -7 36 -9 18z"/>
<path d="M2651 637 c2 -25 5 -44 8 -41 6 6 1 77 -6 84 -2 2 -3 -17 -2 -43z"/>
<path d="M3961 664 c0 -11 3 -14 6 -6 3 7 2 16 -1 19 -3 4 -6 -2 -5 -13z"/>
<path d="M1852 650 c0 -14 2 -19 5 -12 2 6 2 18 0 25 -3 6 -5 1 -5 -13z"/>
<path d="M3604 645 c8 -15 12 -35 9 -44 -4 -13 -3 -13 5 -2 12 16 5 46 -14 62
-12 10 -12 7 0 -16z"/>
<path d="M4429 633 c-3 -18 -2 -52 2 -75 6 -43 7 -43 8 -7 0 19 7 41 14 48 8
10 8 12 0 7 -8 -4 -13 5 -15 26 l-3 33 -6 -32z"/>
<path d="M1933 605 c0 -30 6 -28 12 4 2 11 0 21 -4 21 -5 0 -8 -11 -8 -25z"/>
<path d="M1026 605 c-4 -12 0 -15 19 -12 13 1 26 5 27 7 2 3 1 4 -1 3 -2 -1
-12 2 -21 7 -13 7 -20 6 -24 -5z"/>
<path d="M1845 610 c-4 -6 -11 -7 -17 -4 -7 4 -8 2 -4 -5 4 -6 11 -9 16 -6 5
3 11 -9 13 -27 3 -29 4 -28 5 10 2 42 -1 51 -13 32z"/>
<path d="M2496 609 c6 -8 43 -58 83 -111 39 -54 73 -98 76 -98 3 0 4 19 4 43
-2 40 -2 41 -8 9 l-6 -33 -60 83 c-33 46 -59 85 -58 89 1 3 -8 11 -20 19 -19
11 -20 11 -11 -1z"/>
<path d="M1150 601 c0 -5 9 -7 20 -4 11 3 20 7 20 9 0 2 -9 4 -20 4 -11 0 -20
-4 -20 -9z"/>
<path d="M1245 600 c-4 -6 6 -7 27 -3 44 8 48 13 10 13 -17 0 -34 -4 -37 -10z"/>
<path d="M1438 585 c-16 -13 -28 -29 -28 -35 0 -19 15 -9 37 25 12 19 21 35
20 35 -1 0 -14 -12 -29 -25z"/>
<path d="M1505 600 c3 -5 11 -10 16 -10 6 0 7 5 4 10 -3 6 -11 10 -16 10 -6 0
-7 -4 -4 -10z"/>
<path d="M1576 595 c-10 -8 -22 -12 -27 -10 -4 3 -10 1 -14 -5 -3 -5 -2 -10 4
-10 6 0 7 -7 4 -17 -4 -11 -3 -14 5 -9 7 4 12 13 12 19 0 7 12 20 28 29 15 10
23 17 17 17 -5 0 -19 -6 -29 -14z"/>
<path d="M1633 603 c10 -3 25 -19 32 -36 8 -18 14 -25 15 -17 0 24 -29 60 -48
59 -14 -1 -14 -2 1 -6z"/>
<path d="M1870 598 c0 -4 4 -8 9 -8 6 0 12 4 15 8 3 5 -1 9 -9 9 -8 0 -15 -4
-15 -9z"/>
<path d="M1958 585 c-16 -14 -28 -34 -28 -47 0 -18 2 -20 9 -8 6 8 8 17 5 21
-2 4 8 17 22 28 15 12 25 23 23 25 -2 2 -16 -6 -31 -19z"/>
<path d="M2008 603 c7 -3 16 -2 19 1 4 3 -2 6 -13 5 -11 0 -14 -3 -6 -6z"/>
<path d="M2180 599 c0 -5 5 -7 10 -4 6 3 10 8 10 11 0 2 -4 4 -10 4 -5 0 -10
-5 -10 -11z"/>
<path d="M2225 600 c11 -5 27 -9 35 -9 9 0 8 4 -5 9 -11 5 -27 9 -35 9 -9 0
-8 -4 5 -9z"/>
<path d="M2750 599 c0 -5 5 -7 10 -4 6 3 10 8 10 11 0 2 -4 4 -10 4 -5 0 -10
-5 -10 -11z"/>
<path d="M2797 603 c12 -2 34 -18 48 -34 14 -17 25 -26 25 -21 0 18 -53 62
-74 61 -20 -2 -20 -2 1 -6z"/>
<path d="M3151 594 c-19 -14 -25 -14 -31 -3 -6 9 -8 2 -8 -18 l1 -32 28 30
c30 32 63 37 97 14 18 -13 21 -14 16 -1 -11 28 -69 34 -103 10z"/>
<path d="M3686 595 c-10 -8 -23 -12 -27 -9 -5 2 -8 -20 -8 -51 1 -66 6 -67 13
-6 5 41 13 54 41 64 6 3 8 7 5 10 -3 3 -14 -1 -24 -8z"/>
<path d="M3800 600 c0 -5 7 -7 15 -4 8 4 15 8 15 10 0 2 -7 4 -15 4 -8 0 -15
-4 -15 -10z"/>
<path d="M3870 607 c0 -4 9 -16 20 -27 11 -11 20 -16 20 -12 0 5 -9 17 -20 27
-11 10 -20 15 -20 12z"/>
<path d="M3961 594 c0 -11 3 -14 6 -6 3 7 2 16 -1 19 -3 4 -6 -2 -5 -13z"/>
<path d="M4091 606 c2 -2 18 -6 34 -10 22 -5 26 -4 15 4 -14 9 -59 15 -49 6z"/>
<path d="M4298 603 c7 -3 16 -2 19 1 4 3 -2 6 -13 5 -11 0 -14 -3 -6 -6z"/>
<path d="M4330 602 c0 -4 9 -13 20 -20 12 -7 18 -18 14 -24 -5 -7 -3 -8 5 -3
9 5 7 13 -10 31 -24 26 -29 28 -29 16z"/>
<path d="M1331 588 c8 -7 23 -22 33 -33 10 -11 15 -13 11 -5 -13 25 -37 50
-48 50 -6 0 -4 -6 4 -12z"/>
<path d="M2067 582 c3 -12 9 -25 14 -28 14 -8 11 10 -6 32 -13 18 -14 18 -8
-4z"/>
<path d="M3053 585 c0 -8 4 -15 9 -15 4 0 8 4 8 9 0 6 -4 12 -8 15 -5 3 -9 -1
-9 -9z"/>
<path d="M3772 579 c-24 -38 -32 -68 -20 -75 6 -4 8 -3 5 3 -4 6 2 27 13 48
21 42 22 57 2 24z"/>
<path d="M4024 575 c-9 -14 -14 -28 -10 -32 3 -3 6 -1 6 5 0 7 9 21 20 32 11
11 16 20 10 20 -5 0 -17 -11 -26 -25z"/>
<path d="M4232 579 c-15 -24 -33 -69 -28 -69 5 0 46 83 43 86 -2 2 -8 -6 -15
-17z"/>
<path d="M1112 578 c-7 -7 -12 -28 -11 -47 l1 -36 8 32 c4 18 13 40 20 48 15
18 -1 20 -18 3z"/>
<path d="M1211 566 c-8 -13 -11 -30 -8 -38 3 -8 6 -5 6 8 1 11 6 25 13 32 6 6
9 14 7 17 -3 3 -11 -6 -18 -19z"/>
<path d="M2443 564 c0 -17 2 -22 7 -13 5 6 6 18 3 26 -8 19 -10 16 -10 -13z"/>
<path d="M2710 569 c-7 -11 -9 -23 -6 -27 3 -3 6 0 6 6 0 6 7 18 16 26 8 9 11
16 5 16 -6 0 -15 -9 -21 -21z"/>
<path d="M1033 565 c0 -8 4 -12 9 -9 5 3 6 10 3 15 -9 13 -12 11 -12 -6z"/>
<path d="M2276 567 c3 -10 9 -15 12 -12 3 3 0 11 -7 18 -10 9 -11 8 -5 -6z"/>
<path d="M2650 559 c0 -11 4 -18 10 -14 5 3 7 12 3 20 -7 21 -13 19 -13 -6z"/>
<path d="M2911 564 c0 -11 3 -14 6 -6 3 7 2 16 -1 19 -3 4 -6 -2 -5 -13z"/>
<path d="M3600 565 c-7 -8 -27 -19 -44 -24 -24 -7 -26 -9 -9 -10 12 -1 35 10
50 24 15 13 25 25 22 25 -4 0 -12 -7 -19 -15z"/>
<path d="M4161 560 c14 -31 19 -36 19 -24 0 6 -7 19 -16 30 -14 18 -14 18 -3
-6z"/>
<path d="M3257 535 c-4 -8 -3 -16 1 -19 4 -3 9 4 9 15 2 23 -3 25 -10 4z"/>
<path d="M3911 543 c0 -5 4 -17 9 -28 8 -17 8 -16 7 8 -1 15 -5 27 -9 27 -4 0
-8 -3 -7 -7z"/>
<path d="M2075 530 c3 -5 8 -10 11 -10 2 0 4 5 4 10 0 6 -5 10 -11 10 -5 0 -7
-4 -4 -10z"/>
<path d="M2290 527 c0 -12 -12 -17 -52 -20 l-53 -3 53 -2 c39 -2 54 2 59 13 3
9 3 19 -1 22 -3 4 -6 -1 -6 -10z"/>
<path d="M2910 525 c0 -8 2 -15 4 -15 2 0 6 7 10 15 3 8 1 15 -4 15 -6 0 -10
-7 -10 -15z"/>
<path d="M3453 533 c9 -2 23 -2 30 0 6 3 -1 5 -18 5 -16 0 -22 -2 -12 -5z"/>
<path d="M3963 525 c0 -8 4 -15 9 -15 4 0 8 4 8 9 0 6 -4 12 -8 15 -5 3 -9 -1
-9 -9z"/>
<path d="M1373 511 c0 -11 5 -18 9 -15 4 3 5 11 1 19 -7 21 -12 19 -10 -4z"/>
<path d="M1413 490 c-1 -22 1 -42 5 -44 8 -5 9 71 1 78 -2 3 -5 -13 -6 -34z"/>
<path d="M1852 500 c0 -19 2 -27 5 -17 2 9 2 25 0 35 -3 9 -5 1 -5 -18z"/>
<path d="M2442 495 c-1 -19 0 -35 2 -35 8 0 13 49 6 60 -4 6 -7 -5 -8 -25z"/>
<path d="M2652 510 c0 -14 2 -19 5 -12 2 6 2 18 0 25 -3 6 -5 1 -5 -13z"/>
<path d="M2694 491 c5 -41 37 -91 58 -91 5 0 -2 10 -16 23 -16 14 -28 37 -32
62 -3 22 -8 42 -11 45 -3 3 -2 -15 1 -39z"/>
<path d="M2865 520 c3 -5 8 -10 11 -10 2 0 4 5 4 10 0 6 -5 10 -11 10 -5 0 -7
-4 -4 -10z"/>
<path d="M4005 505 c0 -15 4 -20 10 -15 6 5 47 11 90 13 l80 3 -80 2 c-45 1
-85 6 -90 12 -6 6 -10 0 -10 -15z"/>
<path d="M1033 505 c0 -8 4 -12 9 -9 5 3 6 10 3 15 -9 13 -12 11 -12 -6z"/>
<path d="M1196 485 c6 -36 18 -58 40 -76 13 -10 12 -5 -4 16 -12 17 -23 40
-25 52 -2 12 -6 25 -10 29 -3 4 -4 -6 -1 -21z"/>
<path d="M1540 500 c0 -5 5 -10 11 -10 5 0 7 5 4 10 -3 6 -8 10 -11 10 -2 0
-4 -4 -4 -10z"/>
<path d="M1933 490 c1 -21 10 -18 13 5 1 8 -2 15 -6 15 -5 0 -8 -9 -7 -20z"/>
<path d="M2077 491 c-2 -10 -1 -24 3 -30 4 -7 7 1 8 18 1 35 -3 40 -11 12z"/>
<path d="M2124 482 c3 -28 23 -72 32 -72 2 0 -2 13 -11 30 -20 38 -16 54 15
61 23 6 22 7 -7 8 -30 1 -32 -1 -29 -27z"/>
<path d="M3053 473 c-1 -20 -8 -42 -15 -49 -29 -29 -86 -22 -116 15 -11 14
-11 14 -6 -2 14 -41 89 -54 124 -22 9 8 19 13 21 11 2 -3 5 15 6 40 1 24 -1
44 -5 44 -4 0 -8 -17 -9 -37z"/>
<path d="M4433 475 c0 -22 2 -30 4 -17 2 12 2 30 0 40 -3 9 -5 -1 -4 -23z"/>
<path d="M2871 484 c0 -11 3 -14 6 -6 3 7 2 16 -1 19 -3 4 -6 -2 -5 -13z"/>
<path d="M2912 480 c0 -14 2 -19 5 -12 2 6 2 18 0 25 -3 6 -5 1 -5 -13z"/>
<path d="M3110 490 c0 -5 5 -10 11 -10 5 0 7 5 4 10 -3 6 -8 10 -11 10 -2 0
-4 -4 -4 -10z"/>
<path d="M3254 464 c0 -19 2 -34 6 -34 9 0 11 58 3 63 -5 3 -8 -10 -9 -29z"/>
<path d="M3962 471 c1 -16 5 -28 9 -26 6 5 0 55 -7 55 -3 0 -3 -13 -2 -29z"/>
<path d="M4211 479 c-1 -15 7 -35 17 -46 9 -10 13 -13 8 -6 -5 7 -12 28 -16
46 -7 29 -8 30 -9 6z"/>
<path d="M1101 474 c0 -11 3 -14 6 -6 3 7 2 16 -1 19 -3 4 -6 -2 -5 -13z"/>
<path d="M1673 470 c1 -21 10 -18 13 5 1 8 -2 15 -6 15 -5 0 -8 -9 -7 -20z"/>
<path d="M3749 474 c6 -12 7 -24 4 -28 -3 -3 -1 -6 5 -6 16 0 15 12 -4 36 -15
18 -15 18 -5 -2z"/>
<path d="M4170 465 c0 -8 -9 -24 -21 -36 -11 -11 -19 -23 -16 -25 7 -7 47 46
47 62 0 8 -2 14 -5 14 -3 0 -5 -7 -5 -15z"/>
<path d="M2282 445 c-7 -14 -23 -30 -37 -35 -14 -5 -25 -12 -25 -14 0 -3 10
-2 22 3 24 9 65 57 56 66 -2 3 -10 -6 -16 -20z"/>
<path d="M3652 434 c-2 -19 -1 -34 2 -34 7 0 13 61 6 65 -3 2 -7 -12 -8 -31z"/>
<path d="M4012 448 c7 -15 15 -23 17 -17 2 6 -4 18 -13 27 -15 15 -15 15 -4
-10z"/>
<path d="M4375 459 c-4 -6 -5 -12 -2 -15 2 -3 7 2 10 11 7 17 1 20 -8 4z"/>
<path d="M1543 444 c-3 -8 -2 -19 3 -24 5 -5 9 1 9 16 0 28 -3 30 -12 8z"/>
<path d="M1850 436 c0 -14 4 -27 8 -30 5 -3 6 8 4 25 -5 35 -12 38 -12 5z"/>
<path d="M1931 444 c0 -11 3 -14 6 -6 3 7 2 16 -1 19 -3 4 -6 -2 -5 -13z"/>
<path d="M2855 450 c-3 -5 -1 -10 4 -10 6 0 11 5 11 10 0 6 -2 10 -4 10 -3 0
-8 -4 -11 -10z"/>
<path d="M3894 436 c-11 -12 -29 -27 -40 -34 -10 -7 -5 -6 12 2 29 14 61 43
53 49 -2 2 -13 -6 -25 -17z"/>
<path d="M1102 430 c0 -14 2 -19 5 -12 2 6 2 18 0 25 -3 6 -5 1 -5 -13z"/>
<path d="M1337 425 c-15 -14 -24 -25 -20 -25 11 0 25 12 42 33 19 24 11 21
-22 -8z"/>
<path d="M2441 434 c0 -11 3 -14 6 -6 3 7 2 16 -1 19 -3 4 -6 -2 -5 -13z"/>
<path d="M1673 425 c0 -8 4 -12 9 -9 5 3 6 10 3 15 -9 13 -12 11 -12 -6z"/>
<path d="M3112 420 c0 -14 2 -19 5 -12 2 6 2 18 0 25 -3 6 -5 1 -5 -13z"/>
<path d="M3770 426 c0 -2 7 -7 16 -10 8 -3 12 -2 9 4 -6 10 -25 14 -25 6z"/>
<path d="M3962 404 c-1 -13 0 -24 2 -24 7 0 14 40 7 44 -4 3 -8 -6 -9 -20z"/>
<path d="M4350 419 c0 -5 5 -7 10 -4 6 3 10 8 10 11 0 2 -4 4 -10 4 -5 0 -10
-5 -10 -11z"/>
<path d="M4430 420 c0 -5 5 -10 11 -10 5 0 7 5 4 10 -3 6 -8 10 -11 10 -2 0
-4 -4 -4 -10z"/>
<path d="M2815 410 c-4 -6 -11 -7 -17 -4 -7 4 -8 2 -4 -4 7 -12 36 -5 36 9 0
12 -7 11 -15 -1z"/>
<path d="M1270 396 c7 -7 13 -7 20 0 6 6 3 10 -10 10 -13 0 -16 -4 -10 -10z"/>
<path d="M2170 405 c0 -7 30 -13 34 -7 3 4 -4 9 -15 9 -10 1 -19 0 -19 -2z"/>
<path d="M3815 400 c3 -5 8 -10 11 -10 2 0 4 5 4 10 0 6 -5 10 -11 10 -5 0 -7
-4 -4 -10z"/>
<path d="M4262 405 c8 -8 56 -12 66 -6 7 4 -6 7 -29 8 -22 0 -39 -1 -37 -2z"/>
<path d="M3948 348 c-14 -14 -15 -18 -4 -18 8 0 17 7 20 16 9 23 4 24 -16 2z"/>
</g>
</svg>
